<svg width="3262" height="3512" viewBox="0 0 3262 3512" fill="none" xmlns="http://www.w3.org/2000/svg">
<path fill-rule="evenodd" clip-rule="evenodd" d="M110.769 1545.18L1311.76 2505.97C1491.64 2649.87 1746.56 2652.26 1929.1 2511.74L3151.28 1570.9L3168.28 1584.56C3228.05 1632.58 3262.48 1705.37 3261.69 1782.04C3260.9 1858.72 3224.96 1930.78 3164.2 1977.55L1929.1 2928.33C1746.56 3068.85 1491.64 3066.47 1311.76 2922.56L94.4178 1948.7C35.1138 1901.25 0.59082 1829.42 0.59082 1753.48C0.59082 1677.53 35.1138 1605.7 94.4178 1558.26L110.769 1545.18Z" fill="#00A3FF" fill-opacity="0.5"/>
<path fill-rule="evenodd" clip-rule="evenodd" d="M110.813 2024.34L1311.75 2985.09C1491.63 3129 1746.56 3131.38 1929.1 2990.86L3151.24 2050.06L3168.27 2063.75C3228.05 2111.77 3262.48 2184.57 3261.69 2261.24C3260.89 2337.91 3224.96 2409.98 3164.2 2456.75L1929.1 3407.53C1746.56 3548.05 1491.64 3545.67 1311.76 3401.76L94.4168 2427.89C35.1128 2380.45 0.589844 2308.62 0.589844 2232.67C0.589844 2156.73 35.1128 2084.9 94.4168 2037.46L110.813 2024.34Z" fill="#00A3FF" fill-opacity="0.25"/>
<path fill-rule="evenodd" clip-rule="evenodd" d="M1930.65 111.068C1748.04 -35.6321 1488.07 -35.8981 1305.16 110.429C959.354 387.072 409.791 826.722 94.4178 1079.02C35.1138 1126.47 0.59082 1198.29 0.59082 1274.24C0.59082 1350.19 35.1138 1422.01 94.4178 1469.46C411.806 1723.37 966.379 2167.03 1311.76 2443.33C1491.64 2587.23 1746.56 2589.62 1929.1 2449.1C2278.98 2179.76 2840.59 1747.44 3164.2 1498.32C3224.96 1451.55 3260.9 1379.48 3261.69 1302.81C3262.48 1226.13 3228.05 1153.34 3168.28 1105.32C2845.79 846.248 2282.12 393.416 1930.66 111.068H1930.65Z" fill="#00A3FF"/>
<path d="M1336.99 1552.41L1106.47 578.807C1097.21 539.731 1150.32 518.384 1170.69 552.992L1546.92 1192.34C1556.63 1208.84 1577.81 1214.47 1594.44 1204.98L1882.52 1040.52C1902.78 1028.96 1928.47 1040.07 1933.91 1062.75L2154.58 1982.53C2163.91 2021.38 2111.31 2043 2090.61 2008.82L1731.45 1415.79C1721.57 1399.48 1700.47 1394.08 1683.97 1403.63L1388.58 1574.63C1368.28 1586.39 1342.4 1575.23 1336.99 1552.41Z" fill="white"/>
</svg>
